<svg xmlns="http://www.w3.org/2000/svg" xmlns:xlink="http://www.w3.org/1999/xlink" width="500" zoomAndPan="magnify" viewBox="0 0 375 374.999991" height="500" preserveAspectRatio="xMidYMid meet" version="1.0"><defs><clipPath id="15d38e1337"><path d="M 207 215 L 370 215 L 370 293.8125 L 207 293.8125 Z M 207 215 " clip-rule="nonzero"/></clipPath><clipPath id="e8fa1ee23d"><path d="M 6 215 L 170 215 L 170 293.8125 L 6 293.8125 Z M 6 215 " clip-rule="nonzero"/></clipPath></defs><path fill="#d9782d" d="M 111.496094 160.519531 L 164.023438 280.875 L 55.601562 206.535156 C 28.40625 188.5 33.914062 157.570312 49.035156 143.953125 C 70.355469 125.921875 100.472656 132.179688 111.503906 160.519531 Z M 111.496094 160.519531 " fill-opacity="1" fill-rule="nonzero"/><path fill="#b01842" d="M 183.527344 132.179688 L 164.417969 266.886719 L 110.039062 138.800781 C 98.273438 106.789062 124.726562 85.804688 142.367188 85.445312 C 162.582031 83.25 187.925781 98.6875 183.527344 132.179688 Z M 183.527344 132.179688 " fill-opacity="1" fill-rule="nonzero"/><path fill="#543b92" d="M 266.207031 138.441406 L 212.199219 266.898438 L 194.921875 150.949219 C 192.621094 123.410156 187.257812 81.507812 233.507812 85.058594 C 254.082031 85.804688 277.285156 109.726562 266.207031 138.441406 Z M 266.207031 138.441406 " fill-opacity="1" fill-rule="nonzero"/><path fill="#397db7" d="M 321.34375 205.789062 L 212.933594 280.523438 L 264.007812 161.628906 C 279.441406 124.078125 315.445312 131.445312 328.316406 145.796875 C 342.28125 159.773438 346.320312 188.125 321.34375 205.789062 Z M 321.34375 205.789062 " fill-opacity="1" fill-rule="nonzero"/><g clip-path="url(#15d38e1337)"><path fill="#6cb35d" d="M 332.726562 293.769531 L 207.417969 293.769531 L 309.195312 222.714844 C 334.191406 206.160156 360.632812 221.257812 367.625 242.964844 C 374.980469 267.269531 358.433594 293.769531 332.714844 293.769531 Z M 332.726562 293.769531 " fill-opacity="1" fill-rule="nonzero"/></g><g clip-path="url(#e8fa1ee23d)"><path fill="#ecb73b" d="M 8.226562 241.507812 C 17.78125 216.464844 44.253906 207.628906 67.761719 222.714844 L 169.539062 293.769531 L 46.082031 293.769531 C 20.363281 293.769531 0.117188 270.207031 8.226562 241.507812 Z M 8.226562 241.507812 " fill-opacity="1" fill-rule="nonzero"/></g></svg>